<svg width="32" height="32" viewBox="0 0 32 32" fill="none" xmlns="http://www.w3.org/2000/svg">
<path fill-rule="evenodd" clip-rule="evenodd" d="M2 6.66667C2 4.08934 4.08934 2 6.66667 2H25.3333C27.9107 2 30 4.08934 30 6.66667V25.3333C30 27.9107 27.9107 30 25.3333 30H6.66667C4.08934 30 2 27.9107 2 25.3333V6.66667ZM9 18.3333C9.64433 18.3333 10.1667 18.8557 10.1667 19.5V23C10.1667 23.6443 9.64433 24.1667 9 24.1667C8.35567 24.1667 7.83333 23.6443 7.83333 23V19.5C7.83333 18.8557 8.35567 18.3333 9 18.3333ZM14.8333 16C14.8333 15.3557 14.311 14.8333 13.6667 14.8333C13.0223 14.8333 12.5 15.3557 12.5 16V23C12.5 23.6443 13.0223 24.1667 13.6667 24.1667C14.311 24.1667 14.8333 23.6443 14.8333 23V16ZM18.3333 11.3333C18.9777 11.3333 19.5 11.8557 19.5 12.5V23C19.5 23.6443 18.9777 24.1667 18.3333 24.1667C17.689 24.1667 17.1667 23.6443 17.1667 23V12.5C17.1667 11.8557 17.689 11.3333 18.3333 11.3333ZM24.1667 9C24.1667 8.35567 23.6443 7.83333 23 7.83333C22.3557 7.83333 21.8333 8.35567 21.8333 9V23C21.8333 23.6443 22.3557 24.1667 23 24.1667C23.6443 24.1667 24.1667 23.6443 24.1667 23V9Z" fill="black"/>
</svg>
