<svg width="26" height="26" viewBox="0 0 26 26" fill="none" xmlns="http://www.w3.org/2000/svg">
<path fill-rule="evenodd" clip-rule="evenodd" d="M0 3.71429C0 1.66294 1.66294 0 3.71429 0H5.41249C6.47772 0 7.40625 0.724976 7.66461 1.7584L9.03369 7.23472C9.26022 8.14085 8.92164 9.09449 8.17443 9.65489L6.5728 10.8561C6.40649 10.9808 6.37033 11.1635 6.41705 11.291C7.82292 15.1289 10.8711 18.1771 14.709 19.583C14.8365 19.6297 15.0192 19.5935 15.1439 19.4272L16.3451 17.8256C16.9055 17.0784 17.8592 16.7398 18.7653 16.9663L24.2416 18.3354C25.275 18.5937 26 19.5223 26 20.5875V22.2857C26 24.3371 24.3371 26 22.2857 26H19.5C8.73045 26 0 17.2696 0 6.5V3.71429Z" fill="black"/>
</svg>
