<svg version="1.1" id="Layer_1" xmlns="http://www.w3.org/2000/svg" xmlns:xlink="http://www.w3.org/1999/xlink" x="0px" y="0px"
	 width="100%" viewBox="0 0 117 138" enable-background="new 0 0 117 138" xml:space="preserve">
<path fill="#FFFFFF" opacity="1.000000" stroke="none" 
	d="
M1.000000,48.000000 
	C1.000000,32.000000 1.000000,16.500004 1.000000,1.000004 
	C39.999992,1.000003 78.999985,1.000003 117.999985,1.000001 
	C117.999985,46.999989 117.999985,92.999977 117.999992,138.999969 
	C79.000015,138.999985 40.000034,138.999985 1.000025,139.000000 
	C1.000000,108.833336 1.000000,78.666664 1.000000,48.000000 
M38.379417,53.857361 
	C41.240032,54.180374 44.100647,54.503384 47.708431,54.765709 
	C47.811012,53.530327 47.913589,52.294949 48.746140,50.907772 
	C50.563595,50.288952 52.381046,49.670132 54.415108,48.977562 
	C54.807800,50.333736 55.134697,51.462688 55.482811,52.664917 
	C60.996170,50.353081 60.671848,45.212769 63.073269,41.038380 
	C70.057838,41.627037 77.042404,42.215691 84.811478,42.916149 
	C86.317520,43.401237 87.823555,43.886326 90.045670,44.602058 
	C87.356659,46.833775 85.560966,48.324089 84.362602,49.318661 
	C88.842682,53.282494 92.905502,56.964111 97.080528,60.513744 
	C98.211761,61.475529 99.682243,62.038288 101.676025,63.153728 
	C102.290985,65.049614 102.905945,66.945496 103.564751,68.976555 
	C101.329636,69.113327 99.267464,69.239517 97.862198,69.325508 
	C99.361107,77.447983 100.799591,85.243080 102.100647,93.725296 
	C102.269463,94.698044 102.438278,95.670799 102.757202,97.508530 
	C99.925491,95.963905 97.902168,94.860229 96.620872,94.161316 
	C93.988457,100.276947 91.520546,105.921776 89.159698,111.611031 
	C88.875275,112.296448 89.170509,113.222404 88.872421,114.685959 
	C87.519196,116.099983 86.165962,117.514008 84.583923,119.167114 
	C83.495552,117.028954 82.455704,114.986107 81.175293,112.470665 
	C75.250046,119.115593 68.649719,123.453529 60.538567,125.277420 
	C60.329189,125.324501 60.332355,126.316803 59.448158,127.082664 
	C57.130547,126.274277 57.130547,126.274277 58.582920,120.952278 
	C52.181011,120.646507 45.686901,120.321083 39.191017,120.036064 
	C37.421329,119.958412 35.646309,120.002388 33.191605,119.983727 
	C32.142330,119.284576 31.093056,118.585426 30.051779,117.891602 
	C31.949104,116.122986 33.564709,114.616974 34.910824,113.362183 
	C30.047737,109.887016 25.644926,106.733704 21.233767,103.592125 
	C19.547024,102.390854 17.841169,101.216423 15.952366,99.255417 
	C15.474446,97.676598 14.996527,96.097786 14.518606,94.518967 
	C16.553213,94.196243 18.587822,93.873512 19.794151,93.682167 
	C17.390078,86.130531 15.020574,78.687485 12.521220,70.836555 
	C9.901335,77.509346 11.281192,84.144875 11.291952,91.062500 
	C9.060808,90.894135 6.684166,90.714783 3.785598,90.496048 
	C6.827369,98.457230 11.766090,104.719589 17.235632,110.577095 
	C17.860777,111.246590 19.717340,110.766220 21.650301,111.111534 
	C23.351219,112.548347 25.052137,113.985153 26.982086,115.615433 
	C24.418734,117.472878 22.754131,118.679062 20.542057,120.281960 
	C29.344807,126.085434 38.450218,128.986313 48.498344,128.846588 
	C48.931717,128.840561 49.348759,127.660187 50.513412,126.995453 
	C55.905876,129.309586 49.601288,131.981720 51.087421,134.982132 
	C60.798996,134.371872 70.057686,132.002472 77.844337,124.322487 
	C79.023170,123.515968 80.201996,122.709442 81.342606,121.929077 
	C82.150787,124.683907 82.768982,126.791145 83.648499,129.789108 
	C86.945808,126.390663 90.125557,124.012024 92.088158,120.872505 
	C94.791718,116.547676 96.575607,111.647957 98.908798,106.265022 
	C99.609016,104.532051 100.309235,102.799088 101.072144,100.910950 
	C103.354279,102.836655 105.278137,104.460045 107.493637,106.329529 
	C107.835274,104.293175 108.197571,103.013893 108.241852,101.723686 
	C108.488243,94.546120 108.853996,87.361320 108.687004,80.190453 
	C108.653679,78.759323 106.484909,77.377937 105.100426,75.017097 
	C106.620964,70.143951 110.412743,74.771118 113.839218,72.432251 
	C109.923531,66.506836 106.072960,60.484131 101.956596,54.648930 
	C101.291649,53.706329 99.444534,53.597679 97.756111,52.501247 
	C95.809326,51.169930 93.862549,49.838612 91.450829,48.189342 
	C95.064880,45.910526 97.028481,44.672394 99.282806,43.250942 
	C90.972809,37.464882 82.709496,33.879807 72.418411,34.324936 
	C70.917702,34.174419 69.416992,34.023907 67.523750,33.834023 
	C68.986847,31.007870 69.982231,29.085171 70.913773,27.285788 
	C68.716614,26.845123 66.910210,26.482830 64.389542,25.806261 
	C65.730942,24.846207 67.072350,23.886154 69.275772,22.309149 
	C66.302025,19.613298 63.164436,16.768915 59.870605,13.422963 
	C59.257206,13.331962 58.643806,13.240960 57.521606,13.049376 
	C57.674995,12.277393 57.828384,11.505410 58.598648,10.686121 
	C58.960773,10.017171 59.322899,9.348220 59.685024,8.679269 
	C59.119228,8.518421 58.553432,8.357574 57.183495,8.029405 
	C53.794300,7.402750 50.405109,6.776095 46.300003,6.064815 
	C41.671951,8.348513 45.421577,3.450913 43.804527,3.153599 
	C38.045761,4.009978 33.351250,6.729464 31.723713,10.681821 
	C30.413416,9.899570 29.103121,9.117320 27.101027,7.922064 
	C25.756937,10.830414 24.356524,13.860639 22.372787,17.235399 
	C22.512280,18.499645 19.134977,20.388756 22.988997,21.449671 
	C22.988997,21.449671 22.972143,21.917557 22.437227,22.161495 
	C22.274242,22.270309 22.111259,22.379124 21.254141,22.258883 
	C20.606813,21.931000 19.959488,21.603119 18.912760,21.090963 
	C18.679365,21.483311 18.445969,21.875660 18.078033,22.966671 
	C18.199919,24.650501 18.321806,26.334330 18.359034,28.441833 
	C18.496115,28.715927 18.710602,28.899750 19.036976,29.504362 
	C19.083611,29.668612 19.130245,29.832861 19.033480,30.676622 
	C19.668272,31.488878 20.303064,32.301132 21.003897,33.819607 
	C23.924616,37.533089 18.064327,36.425461 17.750048,39.761700 
	C22.153469,42.179302 26.556890,44.596909 30.794367,47.696117 
	C29.859730,48.438477 28.925093,49.180836 27.990456,49.923195 
	C28.044950,50.366146 28.099443,50.809101 28.153936,51.252052 
	C31.380011,51.533627 34.606087,51.815205 37.981602,52.610428 
	C38.038857,52.778595 38.096107,52.946762 38.379417,53.857361 
M37.276413,96.660461 
	C37.276413,99.271797 37.276413,101.883125 37.276413,104.530220 
	C41.316242,104.530220 45.034073,104.530220 49.114685,104.530220 
	C49.114685,100.533920 49.114685,96.856529 49.114685,92.677589 
	C58.772125,106.587334 73.962059,107.182060 81.968567,101.898743 
	C81.612061,98.446579 81.292603,95.353287 80.957596,92.109344 
	C76.071274,93.623871 70.966125,97.249161 65.201134,93.357849 
	C71.162247,86.204437 77.063950,79.122307 83.109505,71.867554 
	C78.832825,67.322876 74.040184,64.180832 67.665825,64.052437 
	C59.347736,63.884895 53.501984,68.047050 48.658607,76.058388 
	C48.658607,69.567642 48.658607,64.490952 48.658607,59.449303 
	C44.906345,59.449303 41.533241,59.449303 37.343575,59.449303 
	C37.343575,71.788582 37.343575,83.757797 37.276413,96.660461 
z"/>
<path fill="#0F1017" opacity="1.000000" stroke="none" 
	d="
M37.309994,96.193741 
	C37.343575,83.757797 37.343575,71.788582 37.343575,59.449303 
	C41.533241,59.449303 44.906345,59.449303 48.658607,59.449303 
	C48.658607,64.490952 48.658607,69.567642 48.658607,76.058388 
	C53.501984,68.047050 59.347736,63.884895 67.665825,64.052437 
	C74.040184,64.180832 78.832825,67.322876 83.109505,71.867554 
	C77.063950,79.122307 71.162247,86.204437 65.201134,93.357849 
	C70.966125,97.249161 76.071274,93.623871 80.957596,92.109344 
	C81.292603,95.353287 81.612061,98.446579 81.968567,101.898743 
	C73.962059,107.182060 58.772125,106.587334 49.114685,92.677589 
	C49.114685,96.856529 49.114685,100.533920 49.114685,104.530220 
	C45.034073,104.530220 41.316242,104.530220 37.276413,104.530220 
	C37.276413,101.883125 37.276413,99.271797 37.309994,96.193741 
M61.189980,82.812286 
	C63.480858,80.054550 65.771736,77.296814 68.477425,74.039726 
	C60.113678,74.248840 55.695332,79.789581 58.155571,86.191063 
	C59.155365,85.244820 60.066940,84.382072 61.189980,82.812286 
z"/>
<path fill="#B51927" opacity="1.000000" stroke="none" 
	d="
M33.873734,119.990540 
	C35.646309,120.002388 37.421329,119.958412 39.191017,120.036064 
	C45.686901,120.321083 52.181011,120.646507 58.582920,120.952278 
	C57.130547,126.274277 57.130547,126.274277 60.260780,127.026947 
	C63.313370,126.711998 65.552559,126.445793 67.793488,126.195175 
	C71.111931,125.824043 74.431610,125.463966 77.750763,125.099182 
	C70.057686,132.002472 60.798996,134.371872 51.087421,134.982132 
	C49.601288,131.981720 55.905876,129.309586 49.757385,126.954620 
	C43.208302,126.245949 37.925964,124.462173 33.873734,119.990540 
z"/>
<path fill="#F2AD1F" opacity="1.000000" stroke="none" 
	d="
M77.797546,124.710831 
	C74.431610,125.463966 71.111931,125.824043 67.793488,126.195175 
	C65.552559,126.445793 63.313370,126.711998 60.654900,126.919754 
	C60.332355,126.316803 60.329189,125.324501 60.538567,125.277420 
	C68.649719,123.453529 75.250046,119.115593 81.175293,112.470665 
	C82.455704,114.986107 83.495552,117.028954 84.583923,119.167114 
	C86.165962,117.514008 87.519196,116.099983 89.377327,114.329666 
	C92.839317,111.647095 95.796402,109.320808 98.753487,106.994522 
	C96.575607,111.647957 94.791718,116.547676 92.088158,120.872505 
	C90.125557,124.012024 86.945808,126.390663 83.648499,129.789108 
	C82.768982,126.791145 82.150787,124.683907 81.342606,121.929077 
	C80.201996,122.709442 79.023170,123.515968 77.797546,124.710831 
z"/>
<path fill="#B61926" opacity="1.000000" stroke="none" 
	d="
M98.831146,106.629776 
	C95.796402,109.320808 92.839317,111.647095 89.539658,114.005127 
	C89.170509,113.222404 88.875275,112.296448 89.159698,111.611031 
	C91.520546,105.921776 93.988457,100.276947 96.620872,94.161316 
	C97.902168,94.860229 99.925491,95.963905 102.757202,97.508530 
	C102.438278,95.670799 102.269463,94.698044 102.549759,93.367561 
	C106.063164,87.641457 106.896042,81.971573 105.300804,75.973610 
	C106.484909,77.377937 108.653679,78.759323 108.687004,80.190453 
	C108.853996,87.361320 108.488243,94.546120 108.241852,101.723686 
	C108.197571,103.013893 107.835274,104.293175 107.493637,106.329529 
	C105.278137,104.460045 103.354279,102.836655 101.072144,100.910950 
	C100.309235,102.799088 99.609016,104.532051 98.831146,106.629776 
z"/>
<path fill="#F2AC1D" opacity="1.000000" stroke="none" 
	d="
M33.532669,119.987137 
	C37.925964,124.462173 43.208302,126.245949 49.387383,126.970329 
	C49.348759,127.660187 48.931717,128.840561 48.498344,128.846588 
	C38.450218,128.986313 29.344807,126.085434 20.542057,120.281960 
	C22.754131,118.679062 24.418734,117.472878 26.982086,115.615433 
	C25.052137,113.985153 23.351219,112.548347 21.130661,110.677338 
	C19.122021,106.838676 17.633022,103.434212 16.144024,100.029755 
	C17.841169,101.216423 19.547024,102.390854 21.233767,103.592125 
	C25.644926,106.733704 30.047737,109.887016 34.910824,113.362183 
	C33.564709,114.616974 31.949104,116.122986 30.051779,117.891602 
	C31.093056,118.585426 32.142330,119.284576 33.532669,119.987137 
z"/>
<path fill="#F1AB1F" opacity="1.000000" stroke="none" 
	d="
M84.026970,42.804344 
	C77.042404,42.215691 70.057838,41.627037 62.593681,40.683891 
	C62.098492,38.538223 62.082890,36.747036 61.969856,34.736717 
	C61.656326,34.225311 61.371483,34.121368 60.740463,34.138687 
	C60.085213,34.028931 59.707397,33.986229 58.999901,33.812569 
	C56.446590,34.120975 54.222958,34.560345 51.672737,34.862694 
	C49.052052,34.725666 46.757954,34.725666 44.463852,34.725666 
	C44.295555,34.073017 44.127258,33.420368 43.958961,32.767719 
	C47.634377,31.513405 51.309788,30.259090 55.335556,28.917610 
	C57.484253,28.254372 59.282600,27.678299 61.447540,27.107437 
	C62.910694,26.781946 64.007256,26.451241 65.103813,26.120537 
	C66.910210,26.482830 68.716614,26.845123 70.913773,27.285788 
	C69.982231,29.085171 68.986847,31.007870 67.523750,33.834023 
	C69.416992,34.023907 70.917702,34.174419 72.943916,34.536308 
	C76.988602,37.433235 80.507782,40.118790 84.026970,42.804344 
z"/>
<path fill="#F3AC1D" opacity="1.000000" stroke="none" 
	d="
M105.200615,75.495354 
	C106.896042,81.971573 106.063164,87.641457 102.618477,93.024002 
	C100.799591,85.243080 99.361107,77.447983 97.862198,69.325508 
	C99.267464,69.239517 101.329636,69.113327 103.564751,68.976555 
	C102.905945,66.945496 102.290985,65.049614 101.328079,62.594513 
	C100.034714,59.058044 99.089294,56.080791 98.143875,53.103539 
	C99.444534,53.597679 101.291649,53.706329 101.956596,54.648930 
	C106.072960,60.484131 109.923531,66.506836 113.839218,72.432251 
	C110.412743,74.771118 106.620964,70.143951 105.200615,75.495354 
z"/>
<path fill="#B41623" opacity="1.000000" stroke="none" 
	d="
M16.048195,99.642586 
	C17.633022,103.434212 19.122021,106.838676 20.806976,110.531067 
	C19.717340,110.766220 17.860777,111.246590 17.235632,110.577095 
	C11.766090,104.719589 6.827369,98.457230 3.785598,90.496048 
	C6.684166,90.714783 9.060808,90.894135 11.291952,91.062500 
	C11.281192,84.144875 9.901335,77.509346 12.521220,70.836555 
	C15.020574,78.687485 17.390078,86.130531 19.794151,93.682167 
	C18.587822,93.873512 16.553213,94.196243 14.518606,94.518967 
	C14.996527,96.097786 15.474446,97.676598 16.048195,99.642586 
z"/>
<path fill="#B41725" opacity="1.000000" stroke="none" 
	d="
M97.949997,52.802391 
	C99.089294,56.080791 100.034714,59.058044 100.988579,62.409744 
	C99.682243,62.038288 98.211761,61.475529 97.080528,60.513744 
	C92.905502,56.964111 88.842682,53.282494 84.362602,49.318661 
	C85.560966,48.324089 87.356659,46.833775 90.045670,44.602058 
	C87.823555,43.886326 86.317520,43.401237 84.419220,42.860249 
	C80.507782,40.118790 76.988602,37.433235 73.292923,34.474213 
	C82.709496,33.879807 90.972809,37.464882 99.282806,43.250942 
	C97.028481,44.672394 95.064880,45.910526 91.450829,48.189342 
	C93.862549,49.838612 95.809326,51.169930 97.949997,52.802391 
z"/>
<path fill="#B30C18" opacity="1.000000" stroke="none" 
	d="
M30.960314,47.014511 
	C26.556890,44.596909 22.153469,42.179302 17.750048,39.761700 
	C18.064327,36.425461 23.924616,37.533089 21.067753,33.209381 
	C20.480034,31.731804 19.828459,30.864458 19.176882,29.997110 
	C19.130245,29.832861 19.083611,29.668612 19.008400,29.046917 
	C18.898176,28.307941 18.719467,28.117506 18.443691,28.018160 
	C18.321806,26.334330 18.199919,24.650501 18.458794,22.411892 
	C18.997087,21.663155 19.154623,21.469196 19.312160,21.275238 
	C19.959488,21.603119 20.606813,21.931000 21.579327,22.519865 
	C21.904510,22.780848 21.975683,23.068344 22.090931,23.314386 
	C22.472445,24.032804 22.738710,24.505178 22.630054,24.974247 
	C22.001259,25.637619 21.346533,26.493053 21.557413,26.940887 
	C23.136402,30.294115 24.886360,33.566833 26.701052,37.094685 
	C25.537598,37.570820 24.438650,38.020557 23.055244,38.586708 
	C24.098406,39.510513 25.043848,40.347778 26.018261,41.441589 
	C26.732327,41.781990 27.417419,41.865849 28.487202,41.987965 
	C30.587633,42.470394 32.303375,42.914570 34.088463,43.510441 
	C34.303707,43.845222 34.492249,43.955238 34.817795,44.302254 
	C34.295296,45.415237 33.678432,46.218147 32.711395,47.014000 
	C31.894253,47.009464 31.427282,47.011990 30.960314,47.014511 
z"/>
<path fill="#B41824" opacity="1.000000" stroke="none" 
	d="
M64.746674,25.963398 
	C64.007256,26.451241 62.910694,26.781946 61.340927,26.742620 
	C60.143810,25.154102 59.419899,23.935614 58.723076,22.762718 
	C60.558838,22.019379 61.771809,21.528219 62.958290,20.669592 
	C61.476917,16.868385 61.470139,16.865427 59.357117,18.681990 
	C57.312946,17.590399 55.347115,16.959806 53.950817,15.698648 
	C53.182915,15.005065 53.373524,13.250255 53.423679,11.958828 
	C52.998020,10.964589 52.436886,9.794106 51.526794,9.050980 
	C50.150833,7.927451 48.531708,7.101720 47.015915,6.149441 
	C50.405109,6.776095 53.794300,7.402750 57.588371,8.430163 
	C57.989426,9.465091 57.985603,10.099258 57.981777,10.733427 
	C57.828384,11.505410 57.674995,12.277393 57.795555,13.390294 
	C58.721951,13.795652 59.374401,13.860093 60.026852,13.924534 
	C63.164436,16.768915 66.302025,19.613298 69.275772,22.309149 
	C67.072350,23.886154 65.730942,24.846207 64.746674,25.963398 
z"/>
<path fill="#B41F2A" opacity="1.000000" stroke="none" 
	d="
M62.067284,34.955853 
	C62.082890,36.747036 62.098492,38.538223 62.138779,40.704704 
	C60.671848,45.212769 60.996170,50.353081 55.482811,52.664917 
	C55.134697,51.462688 54.807800,50.333736 54.415108,48.977562 
	C52.381046,49.670132 50.563595,50.288952 48.143555,50.915024 
	C47.540974,50.922279 47.059811,50.807091 47.033798,50.630577 
	C47.007782,50.454067 46.930275,50.105755 46.958664,49.710648 
	C46.968788,49.052063 46.950531,48.788589 46.921364,48.384109 
	C46.910454,48.243095 47.146805,48.087692 47.488991,48.052177 
	C49.727379,46.526730 51.623581,45.036793 53.739754,43.374012 
	C54.384693,44.500206 55.019352,45.608448 55.949184,47.232124 
	C56.794296,44.829708 57.471474,42.904675 58.347488,40.846954 
	C58.773094,40.474113 58.909489,40.190483 58.981918,39.440506 
	C59.115406,37.326260 59.222492,35.634892 59.329582,33.943527 
	C59.707397,33.986229 60.085213,34.028931 60.733253,34.336243 
	C61.003471,34.600857 60.996655,34.997402 60.856720,35.052914 
	C60.812088,35.073433 60.907394,35.038437 61.269089,34.996941 
	C61.712746,34.978909 61.890015,34.967381 62.067284,34.955853 
z"/>
<path fill="#BA2A36" opacity="1.000000" stroke="none" 
	d="
M46.657959,6.107127 
	C48.531708,7.101720 50.150833,7.927451 51.526794,9.050980 
	C52.436886,9.794106 52.998020,10.964589 53.016396,11.915880 
	C48.624947,11.888017 44.932491,11.888017 41.206589,11.888017 
	C41.063076,10.711988 40.914680,9.495941 40.753082,8.171697 
	C39.718262,8.887345 38.896099,9.455927 37.637825,10.015848 
	C35.456787,10.008459 33.711857,10.009730 31.966930,10.011002 
	C33.351250,6.729464 38.045761,4.009978 43.804916,3.153264 
	C45.421577,3.450913 41.671951,8.348513 46.657959,6.107127 
z"/>
<path fill="#B8202C" opacity="1.000000" stroke="none" 
	d="
M31.845322,10.346411 
	C33.711857,10.009730 35.456787,10.008459 37.488930,10.324686 
	C36.069225,12.296214 34.329945,13.918467 32.665150,15.613861 
	C31.212009,17.093710 30.227587,17.378847 29.987701,14.511436 
	C29.019455,14.234495 27.408659,14.066545 27.333778,14.331942 
	C27.005539,15.495317 27.121923,16.784142 27.039738,18.365316 
	C26.922939,19.147051 26.843441,19.590935 26.524960,20.344147 
	C26.243948,21.962118 26.201918,23.270761 26.303822,24.654036 
	C26.602505,24.913275 26.637253,25.118137 26.361473,25.651733 
	C26.111359,26.194469 26.051769,26.428726 25.689552,26.738701 
	C24.592941,26.202129 23.798960,25.589842 23.004976,24.977552 
	C22.738710,24.505178 22.472445,24.032804 22.320059,23.181400 
	C22.613340,22.507435 22.792742,22.212496 22.972143,21.917557 
	C22.972143,21.917557 22.988997,21.449671 23.258780,21.019350 
	C23.337744,19.356308 23.146925,18.123585 22.956108,16.890863 
	C24.356524,13.860639 25.756937,10.830414 27.101027,7.922064 
	C29.103121,9.117320 30.413416,9.899570 31.845322,10.346411 
z"/>
<path fill="#B41B26" opacity="1.000000" stroke="none" 
	d="
M30.877340,47.355316 
	C31.427282,47.011990 31.894253,47.009464 32.784122,47.354752 
	C34.488026,48.114670 35.769028,48.526779 37.292702,49.057579 
	C37.732040,49.476578 37.928707,49.776882 38.086441,50.335808 
	C38.074383,50.942181 38.101257,51.289925 38.039608,51.743080 
	C37.951088,51.848495 37.832161,52.096779 37.832161,52.096779 
	C34.606087,51.815205 31.380011,51.533627 28.153936,51.252052 
	C28.099443,50.809101 28.044950,50.366146 27.990456,49.923195 
	C28.925093,49.180836 29.859730,48.438477 30.877340,47.355316 
z"/>
<path fill="#06070C" opacity="1.000000" stroke="none" 
	d="
M46.961266,54.826393 
	C44.100647,54.503384 41.240032,54.180374 38.703644,53.447426 
	C41.686172,53.035408 44.344482,53.033333 47.004581,53.330544 
	C46.991337,54.028683 46.976303,54.427536 46.961266,54.826393 
z"/>
<path fill="#7C7D81" opacity="1.000000" stroke="none" 
	d="
M47.002789,53.031258 
	C44.344482,53.033333 41.686172,53.035408 38.590614,53.076210 
	C38.096107,52.946762 38.038857,52.778595 37.906883,52.353603 
	C37.832161,52.096779 37.951088,51.848495 38.477165,51.793961 
	C41.667759,51.747780 44.332275,51.756134 47.018044,52.081085 
	C47.027126,52.608875 47.014957,52.820065 47.002789,53.031258 
z"/>
<path fill="#BA2632" opacity="1.000000" stroke="none" 
	d="
M22.664448,17.063131 
	C23.146925,18.123585 23.337744,19.356308 23.283714,20.786587 
	C19.134977,20.388756 22.512280,18.499645 22.664448,17.063131 
z"/>
<path fill="#BA2632" opacity="1.000000" stroke="none" 
	d="
M19.105181,30.336866 
	C19.828459,30.864458 20.480034,31.731804 21.034733,32.856270 
	C20.303064,32.301132 19.668272,31.488878 19.105181,30.336866 
z"/>
<path fill="#B6232F" opacity="1.000000" stroke="none" 
	d="
M59.948730,13.673748 
	C59.374401,13.860093 58.721951,13.795652 58.049953,13.440586 
	C58.643806,13.240960 59.257206,13.331962 59.948730,13.673748 
z"/>
<path fill="#B6232F" opacity="1.000000" stroke="none" 
	d="
M58.290215,10.709774 
	C57.985603,10.099258 57.989426,9.465091 57.990440,8.513824 
	C58.553432,8.357574 59.119228,8.518421 59.685024,8.679270 
	C59.322899,9.348220 58.960773,10.017171 58.290215,10.709774 
z"/>
<path fill="#2A3037" opacity="1.000000" stroke="none" 
	d="
M47.004581,53.330540 
	C47.014957,52.820065 47.027126,52.608875 47.000130,51.839695 
	C46.960968,51.281708 47.059811,50.807091 47.059811,50.807091 
	C47.059811,50.807091 47.540974,50.922279 47.778572,50.990921 
	C47.913589,52.294949 47.811012,53.530327 47.334846,54.796051 
	C46.976303,54.427536 46.991337,54.028683 47.004581,53.330540 
z"/>
<path fill="#BA2632" opacity="1.000000" stroke="none" 
	d="
M18.526062,22.062559 
	C18.445969,21.875660 18.679365,21.483311 19.112461,21.183102 
	C19.154623,21.469196 18.997087,21.663155 18.526062,22.062559 
z"/>
<path fill="#BA2632" opacity="1.000000" stroke="none" 
	d="
M22.704685,22.039526 
	C22.792742,22.212496 22.613340,22.507435 22.204811,22.935360 
	C21.975683,23.068344 21.904510,22.780848 21.926392,22.634392 
	C22.111259,22.379124 22.274242,22.270309 22.704685,22.039526 
z"/>
<path fill="#BA2632" opacity="1.000000" stroke="none" 
	d="
M18.401363,28.229996 
	C18.719467,28.117506 18.898176,28.307941 18.991158,28.791386 
	C18.710602,28.899750 18.496115,28.715927 18.401363,28.229996 
z"/>
<path fill="#F9F9F9" opacity="1.000000" stroke="none" 
	d="
M61.084251,83.165802 
	C60.066940,84.382072 59.155365,85.244820 58.155571,86.191063 
	C55.695332,79.789581 60.113678,74.248840 68.477425,74.039726 
	C65.771736,77.296814 63.480858,80.054550 61.084251,83.165802 
z"/>
<path fill="#F1A40F" opacity="1.000000" stroke="none" 
	d="
M54.985203,29.004774 
	C51.309788,30.259090 47.634377,31.513405 43.958961,32.767719 
	C44.127258,33.420368 44.295555,34.073017 44.463852,34.725666 
	C46.757954,34.725666 49.052052,34.725666 51.599586,35.225243 
	C51.131969,37.830967 50.410912,39.937115 49.500416,42.221874 
	C49.196575,42.900410 49.082172,43.400330 48.852016,44.222515 
	C48.102211,45.364117 47.468159,46.183456 46.400253,47.000740 
	C43.646240,46.950443 41.326077,46.902203 38.861259,46.538368 
	C36.850582,42.292976 35.344891,38.135727 33.039410,34.483330 
	C28.935514,27.981846 31.220272,20.343632 35.864410,17.261192 
	C41.976879,13.204183 47.607204,14.452924 52.990852,21.328896 
	C53.267414,22.062223 53.532932,22.520035 53.941269,23.339027 
	C54.384457,25.468395 54.684830,27.236586 54.985203,29.004774 
z"/>
<path fill="#FDFDFC" opacity="1.000000" stroke="none" 
	d="
M52.979809,21.053377 
	C47.607204,14.452924 41.976879,13.204183 35.864410,17.261192 
	C31.220272,20.343632 28.935514,27.981846 33.039410,34.483330 
	C35.344891,38.135727 36.850582,42.292976 38.814987,46.577679 
	C38.913372,46.932583 38.939651,47.050858 38.619041,47.035202 
	C37.882298,47.659325 37.466164,48.299107 37.050030,48.938885 
	C35.769028,48.526779 34.488026,48.114670 33.134296,47.361809 
	C33.678432,46.218147 34.295296,45.415237 34.858246,44.070965 
	C34.804329,43.529602 34.463295,43.207344 34.463295,43.207344 
	C34.463295,43.207344 34.019119,43.358746 34.019119,43.358746 
	C32.303375,42.914570 30.587633,42.470394 28.363796,41.676552 
	C27.233564,41.279602 26.611427,41.232327 25.989290,41.185051 
	C25.043848,40.347778 24.098406,39.510513 23.055244,38.586708 
	C24.438650,38.020557 25.537598,37.570820 26.701052,37.094685 
	C24.886360,33.566833 23.136402,30.294115 21.557413,26.940887 
	C21.346533,26.493053 22.001259,25.637619 22.630054,24.974247 
	C23.798960,25.589842 24.592941,26.202129 25.922300,26.693035 
	C26.545004,26.442490 26.707375,26.311539 26.704346,26.184530 
	C26.697634,25.903053 26.607885,25.623556 26.551998,25.343250 
	C26.637253,25.118137 26.602505,24.913275 26.600822,24.380999 
	C26.757240,22.700493 26.760592,21.367655 26.763943,20.034817 
	C26.843441,19.590935 26.922939,19.147051 27.348595,18.206539 
	C28.480524,16.746565 29.266296,15.783221 30.052069,14.819878 
	C30.227587,17.378847 31.212009,17.093710 32.665150,15.613861 
	C34.329945,13.918467 36.069225,12.296214 37.925041,10.333345 
	C38.896099,9.455927 39.718262,8.887345 40.753082,8.171697 
	C40.914680,9.495941 41.063076,10.711988 41.206589,11.888017 
	C44.932491,11.888017 48.624947,11.888017 52.724689,11.930965 
	C53.373524,13.250255 53.182915,15.005065 53.950817,15.698648 
	C55.347115,16.959806 57.312946,17.590399 59.508591,18.930923 
	C60.978977,19.930830 61.981880,20.483942 62.984783,21.037056 
	C61.771809,21.528219 60.558838,22.019379 58.723076,22.762718 
	C59.419899,23.935614 60.143810,25.154102 60.974335,26.737408 
	C59.282600,27.678299 57.484253,28.254372 55.335556,28.917610 
	C54.684830,27.236586 54.384457,25.468395 53.992435,23.049583 
	C53.593792,21.950432 53.286800,21.501905 52.979809,21.053377 
z"/>
<path fill="#FEFDFA" opacity="1.000000" stroke="none" 
	d="
M46.834106,47.002792 
	C47.468159,46.183456 48.102211,45.364117 49.092976,44.081974 
	C49.529747,43.093864 49.609802,42.568562 49.689857,42.043259 
	C50.410912,39.937115 51.131969,37.830967 51.926174,35.362270 
	C54.222958,34.560345 56.446590,34.120975 58.999901,33.812569 
	C59.222492,35.634892 59.115406,37.326260 58.730835,39.535236 
	C58.351784,40.361778 58.250214,40.670708 58.148651,40.979637 
	C57.471474,42.904675 56.794296,44.829708 55.949184,47.232124 
	C55.019352,45.608448 54.384693,44.500206 53.739754,43.374012 
	C51.623581,45.036793 49.727379,46.526730 47.416626,47.778786 
	C46.946087,47.361530 46.890095,47.182163 46.834106,47.002792 
z"/>
<path fill="#B51622" opacity="1.000000" stroke="none" 
	d="
M61.969856,34.736717 
	C61.890015,34.967381 61.712746,34.978909 61.267738,34.995220 
	C61.000000,35.000000 60.996655,34.997402 60.996655,34.997402 
	C60.996655,34.997402 61.003471,34.600857 61.010685,34.403301 
	C61.371483,34.121368 61.656326,34.225311 61.969856,34.736717 
z"/>
<path fill="#B41B26" opacity="1.000000" stroke="none" 
	d="
M26.018261,41.441589 
	C26.611427,41.232327 27.233564,41.279602 27.979107,41.638298 
	C27.417419,41.865849 26.732327,41.781990 26.018261,41.441589 
z"/>
<path fill="#B41B26" opacity="1.000000" stroke="none" 
	d="
M34.088463,43.510441 
	C34.019119,43.358746 34.463295,43.207344 34.463295,43.207344 
	C34.463295,43.207344 34.804329,43.529602 34.763882,43.760895 
	C34.492249,43.955238 34.303707,43.845222 34.088463,43.510441 
z"/>
<path fill="#B6232F" opacity="1.000000" stroke="none" 
	d="
M62.958290,20.669590 
	C61.981880,20.483942 60.978977,19.930830 59.824596,19.128782 
	C61.470139,16.865427 61.476917,16.868385 62.958290,20.669590 
z"/>
<path fill="#010102" opacity="1.000000" stroke="none" 
	d="
M47.033798,50.630577 
	C47.059811,50.807091 46.960968,51.281708 46.978878,51.523098 
	C44.332275,51.756134 41.667759,51.747780 38.565689,51.688549 
	C38.101257,51.289925 38.074383,50.942181 38.326752,50.309753 
	C38.605995,50.025070 39.078522,49.919510 39.514618,49.946468 
	C42.277233,50.017536 44.603756,50.061646 46.930275,50.105755 
	C46.930275,50.105755 47.007782,50.454067 47.033798,50.630577 
z"/>
<path fill="#000008" opacity="1.000000" stroke="none" 
	d="
M46.400253,47.000740 
	C46.890095,47.182163 46.946087,47.361530 47.074440,47.814297 
	C47.146805,48.087692 46.910454,48.243095 46.486343,48.470940 
	C43.707520,48.774418 41.352810,48.850044 39.001808,48.612999 
	C38.983562,47.883835 38.961605,47.467346 38.939651,47.050858 
	C38.939651,47.050858 38.913372,46.932583 38.959641,46.893272 
	C41.326077,46.902203 43.646240,46.950443 46.400253,47.000740 
z"/>
<path fill="#6C6B71" opacity="1.000000" stroke="none" 
	d="
M38.998100,48.925671 
	C41.352810,48.850044 43.707520,48.774418 46.497253,48.611954 
	C46.950531,48.788589 46.968788,49.052063 46.958664,49.710648 
	C44.603756,50.061646 42.277233,50.017536 39.484070,49.699005 
	C39.017426,49.424580 38.998100,48.925671 38.998100,48.925671 
z"/>
<path fill="#B51622" opacity="1.000000" stroke="none" 
	d="
M58.347488,40.846954 
	C58.250214,40.670708 58.351784,40.361778 58.704430,39.958115 
	C58.909489,40.190483 58.773094,40.474113 58.347488,40.846954 
z"/>
<path fill="#B51622" opacity="1.000000" stroke="none" 
	d="
M61.001350,35.001720 
	C60.907394,35.038437 60.812088,35.073433 60.856720,35.052914 
	C60.996655,34.997402 61.000000,35.000000 61.001350,35.001720 
z"/>
<path fill="#BA2632" opacity="1.000000" stroke="none" 
	d="
M29.987701,14.511436 
	C29.266296,15.783221 28.480524,16.746565 27.385895,17.868687 
	C27.121923,16.784142 27.005539,15.495317 27.333778,14.331942 
	C27.408659,14.066545 29.019455,14.234495 29.987701,14.511436 
z"/>
<path fill="#BA2632" opacity="1.000000" stroke="none" 
	d="
M26.524960,20.344147 
	C26.760592,21.367655 26.757240,22.700493 26.456890,24.306368 
	C26.201918,23.270761 26.243948,21.962118 26.524960,20.344147 
z"/>
<path fill="#BA2632" opacity="1.000000" stroke="none" 
	d="
M26.361473,25.651733 
	C26.607885,25.623556 26.697634,25.903053 26.704346,26.184530 
	C26.707375,26.311539 26.545004,26.442490 26.224926,26.617317 
	C26.051769,26.428726 26.111359,26.194469 26.361473,25.651733 
z"/>
<path fill="#2D2F36" opacity="1.000000" stroke="none" 
	d="
M39.001808,48.612999 
	C38.998100,48.925671 39.017426,49.424580 39.047974,49.672043 
	C39.078522,49.919510 38.605995,50.025070 38.365685,50.051125 
	C37.928707,49.776882 37.732040,49.476578 37.292702,49.057579 
	C37.466164,48.299107 37.882298,47.659325 38.619041,47.035202 
	C38.961605,47.467346 38.983562,47.883835 39.001808,48.612999 
z"/>
<path fill="#F1AB1F" opacity="1.000000" stroke="none" 
	d="
M49.500416,42.221874 
	C49.609802,42.568562 49.529747,43.093864 49.208729,43.759708 
	C49.082172,43.400330 49.196575,42.900410 49.500416,42.221874 
z"/>
<path fill="#F1AB1F" opacity="1.000000" stroke="none" 
	d="
M52.990852,21.328896 
	C53.286800,21.501905 53.593792,21.950432 53.849617,22.688402 
	C53.532932,22.520035 53.267414,22.062223 52.990852,21.328896 
z"/>
</svg>